<?xml version="1.0" encoding="UTF-8"?>
<!DOCTYPE svg PUBLIC "-//W3C//DTD SVG 1.1//EN" "http://www.w3.org/Graphics/SVG/1.1/DTD/svg11.dtd">
<!-- Creator: CorelDRAW Home & Student X7 -->
<svg xmlns="http://www.w3.org/2000/svg" xml:space="preserve" width="70mm" height="22mm" version="1.1" style="shape-rendering:geometricPrecision; text-rendering:geometricPrecision; image-rendering:optimizeQuality; fill-rule:evenodd; clip-rule:evenodd"
viewBox="0 0 7000 2200"
 xmlns:xlink="http://www.w3.org/1999/xlink">
 <defs>
  <style type="text/css">
   <![CDATA[
    .fil0 {fill:#226E47}
    .fil5 {fill:#5B4429}
    .fil6 {fill:#5C4529}
    .fil1 {fill:#5F9641}
    .fil2 {fill:#AFD452}
    .fil3 {fill:#DBB488}
    .fil4 {fill:white}
   ]]>
  </style>
 </defs>
 <g id="Слой_x0020_1">
  <metadata id="CorelCorpID_0Corel-Layer"/>
  <path class="fil0" d="M105 1041c0,116 -4,183 31,299 9,30 18,58 27,83l54 116c38,61 100,185 167,230 0,-58 -19,-63 -71,-141 -112,-168 -149,-357 -149,-570 0,-300 182,-577 418,-750 235,-173 649,-221 934,-77 117,59 197,111 284,198 447,447 329,1193 -208,1506 -148,87 -322,130 -497,130 3,26 2,33 22,34l59 0 4 0c162,0 262,-44 395,-96l154 -92c22,-15 48,-33 67,-51l123 -123c151,-166 235,-446 235,-679 0,-143 -50,-303 -99,-401l-145 -236c-38,-48 -148,-144 -196,-176l-164 -91c-145,-62 -270,-95 -438,-95 -281,0 -559,148 -700,290l-115 131c-102,133 -192,377 -192,561z"/>
  <path class="fil1" d="M1908 1176c0,-86 -20,-184 -42,-262 -6,-21 -5,-18 -13,-38l-21 -38c-24,98 26,106 26,228 -1,194 -16,366 -143,535 -97,129 -156,164 -277,239 -20,12 -18,13 -39,21 -267,108 -525,95 -769,-67 -115,-76 -204,-188 -266,-310 -111,-222 -92,-523 29,-731 36,-62 68,-90 101,-136l132 -113c203,-138 416,-180 659,-119 29,8 78,20 98,29 -4,-48 -50,-55 -128,-74 -194,-49 -396,-27 -566,57 -160,79 -274,194 -364,347 -182,306 -131,737 133,1002 290,289 701,336 1041,139 33,-20 67,-42 94,-67 30,-29 57,-44 84,-77l72 -89c81,-109 159,-287 159,-476z"/>
  <path class="fil2" d="M6463 1100c-148,0 -313,-87 -313,-279 0,-161 154,-263 313,-263l85 0c156,0 313,99 313,254 0,101 -17,158 -96,217 -47,35 -134,69 -209,71l0 -254 -93 0 0 254zm0 -635c-156,0 -312,78 -377,207 -48,95 -48,218 0,314 65,129 223,207 377,207l0 102 93 0 0 -102c193,0 316,-131 317,-132 6,-7 6,-7 12,-14 16,-18 29,-36 41,-60 68,-135 39,-323 -83,-419 -83,-65 -171,-103 -287,-103l0 -102 -93 0 0 102z"/>
  <path class="fil2" d="M5092 1261l93 0 0 -627 277 367c15,19 30,34 36,57 33,-3 38,-13 56,-38 17,-23 26,-34 42,-59 27,-40 54,-72 83,-111 30,-41 54,-74 83,-113 14,-19 25,-34 40,-53 10,-14 10,-13 21,-29l22 -29 0 635 93 0 0 -872c-49,1 -40,11 -65,44l-305 407c-16,21 -35,52 -53,65 -29,-21 -338,-456 -379,-501 -17,-19 -13,-14 -44,-15l0 872z"/>
  <path class="fil2" d="M3703 1041l0 -644 -93 0 0 872c44,-1 38,-4 86,-66 25,-31 42,-54 69,-84 14,-16 18,-25 33,-42l388 -468 0 652 93 0 0 -872c-39,0 -32,-10 -88,64 -14,19 -22,22 -36,41 -15,20 -20,24 -33,42l-344 419c-16,19 -18,22 -35,41 -18,21 -17,29 -40,45z"/>
  <path class="fil2" d="M689 541c84,0 40,-9 162,-50 455,-151 879,196 879,601 0,130 -9,193 -60,303 -12,26 -38,71 -57,96 -28,37 -43,53 -75,85 -383,383 -1008,171 -1114,-347 -17,-85 -6,-181 -6,-256 -31,8 -29,14 -34,51 -31,204 29,416 163,565 76,83 92,96 193,155 236,136 522,117 742,-29 416,-278 461,-961 -99,-1242 -199,-100 -419,-82 -612,15 -36,18 -62,23 -82,53z"/>
  <path class="fil2" d="M2882 490l339 0c45,0 97,25 121,49 85,86 68,307 -147,307l-313 0 0 415 93 0 0 -322c136,0 303,18 412,-62 176,-131 109,-480 -175,-480l-330 0 0 93z"/>
  <path class="fil2" d="M4575 1261l102 0c2,-30 31,-85 42,-110l138 -319c32,-75 59,-143 91,-215l93 -220 -102 0 -211 500c-24,-17 -22,-28 -37,-57 -14,-26 -23,-36 -37,-65l-172 -310c-12,-21 -22,-46 -34,-68l-101 0 279 525c54,108 71,59 -3,217l-48 122z"/>
  <path class="fil3" d="M915 1142l42 29c11,7 28,19 40,28 23,19 57,53 70,73 28,-13 27,-14 42,-31 83,-99 239,-148 367,-158 -3,-84 -28,-140 -60,-202 -142,-11 -344,99 -451,207 -10,11 -15,15 -26,25l-24 29z"/>
  <path class="fil3" d="M1110 1554c4,-187 -235,-408 -484,-382 -13,148 191,402 484,382z"/>
  <path class="fil4" d="M3989 1904c0,34 22,27 73,27l0 -337c35,24 27,29 52,57 23,26 29,28 52,58 18,25 35,34 52,56 23,29 22,36 53,57 49,-33 176,-205 210,-228l0 337 73 0 0 -491c-40,0 -25,-6 -49,15 -23,20 -191,229 -234,258 -30,-21 -100,-109 -129,-144l-100 -110c-22,-21 -14,-19 -53,-19l0 464z"/>
  <path class="fil3" d="M1131 1346c9,31 28,59 41,93 10,28 16,76 34,98 68,-19 110,-43 165,-86 19,-14 27,-29 46,-46 38,-36 113,-153 107,-234 -87,-3 -166,11 -236,45 -59,30 -134,86 -157,130z"/>
  <path class="fil3" d="M867 813c37,9 73,21 108,35 19,7 89,43 97,43 4,1 171,-68 211,-77 -32,-79 -137,-195 -204,-231 -64,22 -183,159 -212,230z"/>
  <path class="fil4" d="M6101 1494c0,76 -2,339 -77,369 -39,16 -32,-15 -50,24 -36,74 136,75 176,-107l24 -268 191 0c0,237 -20,210 72,210l0 -210 55 0 0 -72 -391 0 0 54z"/>
  <path class="fil4" d="M6528 1467l0 218c145,0 328,-33 328,91 0,108 -161,91 -255,91l0 -45 -73 0 0 109c113,0 262,16 338,-36 124,-86 59,-273 -101,-273l-164 0 0 -182c-51,0 -73,-8 -73,27z"/>
  <path class="fil2" d="M2433 1261l93 0 0 -618c0,-20 -6,-26 -25,-26l-68 0 0 644z"/>
  <path class="fil4" d="M5282 1867l-128 0 0 -164 128 0c65,0 127,17 127,82 0,66 -62,82 -127,82zm-201 64c151,0 401,39 401,-146 0,-181 -241,-145 -401,-145l0 291z"/>
  <path class="fil2" d="M2162 490l610 0c19,0 25,-5 25,-25l0 -68 -635 0 0 93z"/>
  <path class="fil3" d="M825 1107c29,-25 53,-53 81,-79l80 -83c-83,-30 -144,-59 -250,-66 -24,56 -63,117 -59,199l148 29z"/>
  <path class="fil5" d="M939 1113c11,-10 16,-14 26,-25 107,-108 309,-218 451,-207 32,62 57,118 60,202 -128,10 -284,59 -367,158 -15,17 -14,18 -42,31 -13,-20 -47,-54 -70,-73 -12,-9 -29,-21 -40,-28l-42 -29 24 -29zm-64 46c185,98 127,101 204,153 81,-122 266,-204 423,-204 0,-84 -9,-137 -45,-209 -13,-25 -18,-24 -31,-45 -160,0 -351,84 -456,189 -33,33 -83,67 -95,116z"/>
  <path class="fil5" d="M626 1172c249,-26 488,195 484,382 -293,20 -497,-234 -484,-382zm-30 -21c0,217 231,432 449,432 78,0 98,9 98,-22 0,0 -7,-46 -8,-51 -6,-23 -23,-71 -31,-88 -95,-206 -375,-323 -508,-271z"/>
  <path class="fil5" d="M1131 1346c23,-44 98,-100 157,-130 70,-34 149,-48 236,-45 6,81 -69,198 -107,234 -19,17 -27,32 -46,46 -55,43 -97,67 -165,86 -18,-22 -24,-70 -34,-98 -13,-34 -32,-62 -41,-93zm-27 8c0,19 12,22 22,46 77,175 6,199 136,146 88,-35 177,-107 226,-189 24,-41 50,-92 61,-142 6,-25 7,-42 12,-64 -127,-30 -253,15 -351,81 -38,26 -106,73 -106,122z"/>
  <path class="fil5" d="M867 813c29,-71 148,-208 212,-230 67,36 172,152 204,231 -40,9 -207,78 -211,77 -8,0 -78,-36 -97,-43 -35,-14 -71,-26 -108,-35zm-42 16c38,9 92,25 129,40 176,71 76,67 236,4 43,-17 87,-33 134,-44 -21,-39 -44,-86 -74,-120 -65,-76 -79,-106 -180,-159 -9,7 3,0 -14,11 -14,8 -9,3 -21,13 -70,52 -193,191 -210,255z"/>
  <path class="fil6" d="M825 1107l-148 -29c-4,-82 35,-143 59,-199 106,7 167,36 250,66l-80 83c-28,26 -52,54 -81,79zm-178 -7c289,67 151,27 344,-113 31,-23 21,-23 28,-56 -52,-12 -128,-77 -296,-77 -49,73 -76,151 -76,246z"/>
  <path class="fil4" d="M4626 1485c0,21 7,27 28,27l355 0 0 -72 -383 0 0 45z"/>
  <path class="fil4" d="M5555 1512l355 0c39,0 39,-72 0,-72l-355 0 0 72z"/>
  <path class="fil4" d="M4626 1676l0 46 337 0c39,0 39,-73 0,-73l-309 0c-21,0 -28,6 -28,27z"/>
  <polygon class="fil4" points="5555,1722 5910,1722 5910,1649 5555,1649 "/>
  <path class="fil4" d="M5081 1485c0,21 7,27 28,27l318 0 0 -72 -346 0 0 45z"/>
  <polygon class="fil4" points="4626,1931 5018,1931 5018,1867 4626,1867 "/>
  <polygon class="fil4" points="5555,1931 5937,1931 5937,1867 5555,1867 "/>
  <polygon class="fil4" points="6365,1931 6437,1931 6437,1776 6365,1776 "/>
 </g>
</svg>
